<mxfile host="app.diagrams.net" modified="2023-06-07T13:19:49.990Z" agent="Mozilla/5.0 (Windows NT 10.0; Win64; x64; rv:109.0) Gecko/20100101 Firefox/114.0" etag="bUU6yT-tMef5ezg0aTf9" version="21.3.7" type="device">
  <diagram name="Página-1" id="yL9oCNAlH3fZYbKfEmBv">
    <mxGraphModel dx="2062" dy="1825" grid="1" gridSize="10" guides="1" tooltips="1" connect="1" arrows="1" fold="1" page="1" pageScale="1" pageWidth="827" pageHeight="1169" math="0" shadow="0">
      <root>
        <mxCell id="0" />
        <mxCell id="1" parent="0" />
        <mxCell id="ALg0Ko-HEizXIf_unuRx-22" value="" style="group" vertex="1" connectable="0" parent="1">
          <mxGeometry x="-20" y="-604.94" width="680" height="654.94" as="geometry" />
        </mxCell>
        <mxCell id="ALg0Ko-HEizXIf_unuRx-1" value="1.1.1 Ver colección" style="ellipse;whiteSpace=wrap;html=1;" vertex="1" parent="ALg0Ko-HEizXIf_unuRx-22">
          <mxGeometry x="243.81" y="-14.059999999999945" width="120" height="70" as="geometry" />
        </mxCell>
        <mxCell id="ALg0Ko-HEizXIf_unuRx-2" value="1.1.2 Añadir cartas" style="ellipse;whiteSpace=wrap;html=1;" vertex="1" parent="ALg0Ko-HEizXIf_unuRx-22">
          <mxGeometry x="374" y="4.9400000000000555" width="120" height="70" as="geometry" />
        </mxCell>
        <mxCell id="ALg0Ko-HEizXIf_unuRx-3" value="1.1.3 Buscar cartas" style="ellipse;whiteSpace=wrap;html=1;" vertex="1" parent="ALg0Ko-HEizXIf_unuRx-22">
          <mxGeometry x="480" y="74.94000000000005" width="120" height="70" as="geometry" />
        </mxCell>
        <mxCell id="ALg0Ko-HEizXIf_unuRx-4" value="1.1.4 Eliminar cartas" style="ellipse;whiteSpace=wrap;html=1;" vertex="1" parent="ALg0Ko-HEizXIf_unuRx-22">
          <mxGeometry x="530" y="154.94000000000005" width="120" height="70" as="geometry" />
        </mxCell>
        <mxCell id="ALg0Ko-HEizXIf_unuRx-5" value="1.1.3 Exportar colección" style="ellipse;whiteSpace=wrap;html=1;" vertex="1" parent="ALg0Ko-HEizXIf_unuRx-22">
          <mxGeometry x="550" y="244.94000000000005" width="120" height="70" as="geometry" />
        </mxCell>
        <mxCell id="ALg0Ko-HEizXIf_unuRx-8" value="1.2.1.4 Eliminar cartas" style="ellipse;whiteSpace=wrap;html=1;" vertex="1" parent="ALg0Ko-HEizXIf_unuRx-22">
          <mxGeometry x="160" y="554.94" width="120" height="70" as="geometry" />
        </mxCell>
        <mxCell id="ALg0Ko-HEizXIf_unuRx-6" value="1.2.1.1 Ver mazo" style="ellipse;whiteSpace=wrap;html=1;" vertex="1" parent="ALg0Ko-HEizXIf_unuRx-22">
          <mxGeometry x="550" y="334.94000000000005" width="120" height="70" as="geometry" />
        </mxCell>
        <mxCell id="ALg0Ko-HEizXIf_unuRx-10" value="1.2.1.2 Añadir cartas" style="ellipse;whiteSpace=wrap;html=1;" vertex="1" parent="ALg0Ko-HEizXIf_unuRx-22">
          <mxGeometry x="520" y="424.94000000000005" width="120" height="70" as="geometry" />
        </mxCell>
        <mxCell id="ALg0Ko-HEizXIf_unuRx-9" value="1.2.1.3 Buscar cartas" style="ellipse;whiteSpace=wrap;html=1;" vertex="1" parent="ALg0Ko-HEizXIf_unuRx-22">
          <mxGeometry x="450" y="504.94000000000005" width="120" height="70" as="geometry" />
        </mxCell>
        <mxCell id="ALg0Ko-HEizXIf_unuRx-7" value="1.2.1.5 Exportar mazo" style="ellipse;whiteSpace=wrap;html=1;" vertex="1" parent="ALg0Ko-HEizXIf_unuRx-22">
          <mxGeometry x="314" y="554.94" width="120" height="70" as="geometry" />
        </mxCell>
        <mxCell id="ALg0Ko-HEizXIf_unuRx-11" value="1.2.2 Crear nuevo mazo" style="ellipse;whiteSpace=wrap;html=1;" vertex="1" parent="ALg0Ko-HEizXIf_unuRx-22">
          <mxGeometry x="30" y="504.94000000000005" width="120" height="70" as="geometry" />
        </mxCell>
        <mxCell id="ALg0Ko-HEizXIf_unuRx-12" value="1.2.3 Eliminar mazo" style="ellipse;whiteSpace=wrap;html=1;" vertex="1" parent="ALg0Ko-HEizXIf_unuRx-22">
          <mxGeometry x="-30" y="424.94000000000005" width="120" height="70" as="geometry" />
        </mxCell>
        <mxCell id="ALg0Ko-HEizXIf_unuRx-17" value="1.3.1 Ver lista de deseos" style="ellipse;whiteSpace=wrap;html=1;" vertex="1" parent="ALg0Ko-HEizXIf_unuRx-22">
          <mxGeometry x="-60" y="334.94000000000005" width="120" height="70" as="geometry" />
        </mxCell>
        <mxCell id="ALg0Ko-HEizXIf_unuRx-15" value="1.3.3 Buscar cartas" style="ellipse;whiteSpace=wrap;html=1;" vertex="1" parent="ALg0Ko-HEizXIf_unuRx-22">
          <mxGeometry x="-30" y="154.94000000000005" width="120" height="70" as="geometry" />
        </mxCell>
        <mxCell id="ALg0Ko-HEizXIf_unuRx-14" value="1.3.4 Eliminar cartas" style="ellipse;whiteSpace=wrap;html=1;" vertex="1" parent="ALg0Ko-HEizXIf_unuRx-22">
          <mxGeometry x="30" y="70.00000000000006" width="120" height="70" as="geometry" />
        </mxCell>
        <mxCell id="ALg0Ko-HEizXIf_unuRx-13" value="1.3.5 Exportar lista de deseos" style="ellipse;whiteSpace=wrap;html=1;" vertex="1" parent="ALg0Ko-HEizXIf_unuRx-22">
          <mxGeometry x="120" y="4.940000000000055" width="120" height="70" as="geometry" />
        </mxCell>
        <mxCell id="ALg0Ko-HEizXIf_unuRx-28" style="edgeStyle=orthogonalEdgeStyle;rounded=0;orthogonalLoop=1;jettySize=auto;html=1;entryX=0.5;entryY=1;entryDx=0;entryDy=0;endArrow=none;endFill=0;" edge="1" parent="ALg0Ko-HEizXIf_unuRx-22" target="ALg0Ko-HEizXIf_unuRx-1">
          <mxGeometry relative="1" as="geometry">
            <mxPoint x="304" y="124.94000000000005" as="sourcePoint" />
          </mxGeometry>
        </mxCell>
        <mxCell id="ALg0Ko-HEizXIf_unuRx-29" style="rounded=0;orthogonalLoop=1;jettySize=auto;html=1;entryX=0;entryY=0.5;entryDx=0;entryDy=0;endArrow=none;endFill=0;" edge="1" parent="ALg0Ko-HEizXIf_unuRx-22" source="ALg0Ko-HEizXIf_unuRx-26" target="ALg0Ko-HEizXIf_unuRx-5">
          <mxGeometry relative="1" as="geometry" />
        </mxCell>
        <mxCell id="ALg0Ko-HEizXIf_unuRx-30" style="edgeStyle=none;shape=connector;rounded=0;orthogonalLoop=1;jettySize=auto;html=1;entryX=0;entryY=0.5;entryDx=0;entryDy=0;labelBackgroundColor=default;strokeColor=default;fontFamily=Helvetica;fontSize=11;fontColor=default;endArrow=none;endFill=0;" edge="1" parent="ALg0Ko-HEizXIf_unuRx-22" source="ALg0Ko-HEizXIf_unuRx-26" target="ALg0Ko-HEizXIf_unuRx-6">
          <mxGeometry relative="1" as="geometry" />
        </mxCell>
        <mxCell id="ALg0Ko-HEizXIf_unuRx-32" style="edgeStyle=none;shape=connector;rounded=0;orthogonalLoop=1;jettySize=auto;html=1;entryX=1;entryY=0.5;entryDx=0;entryDy=0;labelBackgroundColor=default;strokeColor=default;fontFamily=Helvetica;fontSize=11;fontColor=default;endArrow=none;endFill=0;" edge="1" parent="ALg0Ko-HEizXIf_unuRx-22" source="ALg0Ko-HEizXIf_unuRx-26" target="ALg0Ko-HEizXIf_unuRx-17">
          <mxGeometry relative="1" as="geometry" />
        </mxCell>
        <mxCell id="ALg0Ko-HEizXIf_unuRx-33" style="edgeStyle=none;shape=connector;rounded=0;orthogonalLoop=1;jettySize=auto;html=1;entryX=0.5;entryY=0;entryDx=0;entryDy=0;labelBackgroundColor=default;strokeColor=default;fontFamily=Helvetica;fontSize=11;fontColor=default;endArrow=none;endFill=0;" edge="1" parent="ALg0Ko-HEizXIf_unuRx-22" source="ALg0Ko-HEizXIf_unuRx-26" target="ALg0Ko-HEizXIf_unuRx-8">
          <mxGeometry relative="1" as="geometry" />
        </mxCell>
        <mxCell id="ALg0Ko-HEizXIf_unuRx-34" style="edgeStyle=none;shape=connector;rounded=0;orthogonalLoop=1;jettySize=auto;html=1;entryX=0.5;entryY=0;entryDx=0;entryDy=0;labelBackgroundColor=default;strokeColor=default;fontFamily=Helvetica;fontSize=11;fontColor=default;endArrow=none;endFill=0;" edge="1" parent="ALg0Ko-HEizXIf_unuRx-22" source="ALg0Ko-HEizXIf_unuRx-26" target="ALg0Ko-HEizXIf_unuRx-7">
          <mxGeometry relative="1" as="geometry" />
        </mxCell>
        <mxCell id="ALg0Ko-HEizXIf_unuRx-35" style="edgeStyle=none;shape=connector;rounded=0;orthogonalLoop=1;jettySize=auto;html=1;entryX=0.5;entryY=1;entryDx=0;entryDy=0;labelBackgroundColor=default;strokeColor=default;fontFamily=Helvetica;fontSize=11;fontColor=default;endArrow=none;endFill=0;" edge="1" parent="ALg0Ko-HEizXIf_unuRx-22" source="ALg0Ko-HEizXIf_unuRx-26" target="ALg0Ko-HEizXIf_unuRx-13">
          <mxGeometry relative="1" as="geometry" />
        </mxCell>
        <mxCell id="ALg0Ko-HEizXIf_unuRx-36" style="edgeStyle=none;shape=connector;rounded=0;orthogonalLoop=1;jettySize=auto;html=1;entryX=0.5;entryY=1;entryDx=0;entryDy=0;labelBackgroundColor=default;strokeColor=default;fontFamily=Helvetica;fontSize=11;fontColor=default;endArrow=none;endFill=0;" edge="1" parent="ALg0Ko-HEizXIf_unuRx-22" source="ALg0Ko-HEizXIf_unuRx-26" target="ALg0Ko-HEizXIf_unuRx-2">
          <mxGeometry relative="1" as="geometry" />
        </mxCell>
        <mxCell id="ALg0Ko-HEizXIf_unuRx-37" style="edgeStyle=none;shape=connector;rounded=0;orthogonalLoop=1;jettySize=auto;html=1;entryX=0.5;entryY=0;entryDx=0;entryDy=0;labelBackgroundColor=default;strokeColor=default;fontFamily=Helvetica;fontSize=11;fontColor=default;endArrow=none;endFill=0;" edge="1" parent="ALg0Ko-HEizXIf_unuRx-22" source="ALg0Ko-HEizXIf_unuRx-26" target="ALg0Ko-HEizXIf_unuRx-11">
          <mxGeometry relative="1" as="geometry" />
        </mxCell>
        <mxCell id="ALg0Ko-HEizXIf_unuRx-38" style="edgeStyle=none;shape=connector;rounded=0;orthogonalLoop=1;jettySize=auto;html=1;entryX=0.5;entryY=0;entryDx=0;entryDy=0;labelBackgroundColor=default;strokeColor=default;fontFamily=Helvetica;fontSize=11;fontColor=default;endArrow=none;endFill=0;" edge="1" parent="ALg0Ko-HEizXIf_unuRx-22" source="ALg0Ko-HEizXIf_unuRx-26" target="ALg0Ko-HEizXIf_unuRx-9">
          <mxGeometry relative="1" as="geometry" />
        </mxCell>
        <mxCell id="ALg0Ko-HEizXIf_unuRx-39" style="edgeStyle=none;shape=connector;rounded=0;orthogonalLoop=1;jettySize=auto;html=1;entryX=1;entryY=1;entryDx=0;entryDy=0;labelBackgroundColor=default;strokeColor=default;fontFamily=Helvetica;fontSize=11;fontColor=default;endArrow=none;endFill=0;" edge="1" parent="ALg0Ko-HEizXIf_unuRx-22" source="ALg0Ko-HEizXIf_unuRx-26" target="ALg0Ko-HEizXIf_unuRx-14">
          <mxGeometry relative="1" as="geometry" />
        </mxCell>
        <mxCell id="ALg0Ko-HEizXIf_unuRx-40" style="edgeStyle=none;shape=connector;rounded=0;orthogonalLoop=1;jettySize=auto;html=1;entryX=0;entryY=1;entryDx=0;entryDy=0;labelBackgroundColor=default;strokeColor=default;fontFamily=Helvetica;fontSize=11;fontColor=default;endArrow=none;endFill=0;" edge="1" parent="ALg0Ko-HEizXIf_unuRx-22" source="ALg0Ko-HEizXIf_unuRx-26" target="ALg0Ko-HEizXIf_unuRx-3">
          <mxGeometry relative="1" as="geometry" />
        </mxCell>
        <mxCell id="ALg0Ko-HEizXIf_unuRx-41" style="edgeStyle=none;shape=connector;rounded=0;orthogonalLoop=1;jettySize=auto;html=1;entryX=1;entryY=0.5;entryDx=0;entryDy=0;labelBackgroundColor=default;strokeColor=default;fontFamily=Helvetica;fontSize=11;fontColor=default;endArrow=none;endFill=0;" edge="1" parent="ALg0Ko-HEizXIf_unuRx-22" source="ALg0Ko-HEizXIf_unuRx-26" target="ALg0Ko-HEizXIf_unuRx-15">
          <mxGeometry relative="1" as="geometry" />
        </mxCell>
        <mxCell id="ALg0Ko-HEizXIf_unuRx-42" style="edgeStyle=none;shape=connector;rounded=0;orthogonalLoop=1;jettySize=auto;html=1;entryX=0;entryY=0.5;entryDx=0;entryDy=0;labelBackgroundColor=default;strokeColor=default;fontFamily=Helvetica;fontSize=11;fontColor=default;endArrow=none;endFill=0;" edge="1" parent="ALg0Ko-HEizXIf_unuRx-22" source="ALg0Ko-HEizXIf_unuRx-26" target="ALg0Ko-HEizXIf_unuRx-4">
          <mxGeometry relative="1" as="geometry" />
        </mxCell>
        <mxCell id="ALg0Ko-HEizXIf_unuRx-26" value="&lt;div&gt;Usuario&lt;/div&gt;" style="shape=umlActor;verticalLabelPosition=bottom;verticalAlign=top;html=1;outlineConnect=0;" vertex="1" parent="ALg0Ko-HEizXIf_unuRx-22">
          <mxGeometry x="225.04" y="140" width="157.53" height="315.06" as="geometry" />
        </mxCell>
        <mxCell id="ALg0Ko-HEizXIf_unuRx-16" value="1.3.2 Añadir cartas" style="ellipse;whiteSpace=wrap;html=1;" vertex="1" parent="1">
          <mxGeometry x="-80" y="-360" width="120" height="70" as="geometry" />
        </mxCell>
        <mxCell id="ALg0Ko-HEizXIf_unuRx-31" style="edgeStyle=none;shape=connector;rounded=0;orthogonalLoop=1;jettySize=auto;html=1;entryX=1;entryY=0.5;entryDx=0;entryDy=0;labelBackgroundColor=default;strokeColor=default;fontFamily=Helvetica;fontSize=11;fontColor=default;endArrow=none;endFill=0;" edge="1" parent="1" source="ALg0Ko-HEizXIf_unuRx-26" target="ALg0Ko-HEizXIf_unuRx-16">
          <mxGeometry relative="1" as="geometry" />
        </mxCell>
      </root>
    </mxGraphModel>
  </diagram>
</mxfile>
